<svg xmlns="http://www.w3.org/2000/svg" xmlns:xlink="http://www.w3.org/1999/xlink" viewBox="0 0 140.93 119.13"><defs><style>.cls-1{isolation:isolate;}.cls-2{fill:url(#linear-gradient);}.cls-3{fill:url(#linear-gradient-2);}.cls-4{opacity:0.7;mix-blend-mode:multiply;fill:url(#linear-gradient-3);}.cls-5{fill:url(#linear-gradient-4);}.cls-6{fill:url(#linear-gradient-5);}.cls-7{fill:url(#linear-gradient-6);}.cls-8{fill:url(#linear-gradient-7);}</style><linearGradient id="linear-gradient" x1="174.1" y1="396.72" x2="147" y2="295.58" gradientTransform="translate(-108.79 79.21) rotate(-22.75)" gradientUnits="userSpaceOnUse"><stop offset="0.01" stop-color="#5fbd3f"/><stop offset="1" stop-color="#e4e61d"/></linearGradient><linearGradient id="linear-gradient-2" x1="230.01" y1="239.04" x2="126.97" y2="363.39" gradientTransform="translate(-108.79 79.21) rotate(-22.75)" gradientUnits="userSpaceOnUse"><stop offset="0" stop-color="#fff"/><stop offset="1" stop-color="#fff" stop-opacity="0"/></linearGradient><linearGradient id="linear-gradient-3" x1="179.11" y1="296.84" x2="113.08" y2="387.63" gradientTransform="translate(-108.79 79.21) rotate(-22.75)" gradientUnits="userSpaceOnUse"><stop offset="0" stop-color="#066e00"/><stop offset="1" stop-color="#e4e61d" stop-opacity="0"/></linearGradient><linearGradient id="linear-gradient-4" x1="37.65" y1="220.9" x2="39.99" y2="199.8" gradientTransform="matrix(0.92, -0.39, 0.46, 1.09, -0.5, 109.92)" gradientUnits="userSpaceOnUse"><stop offset="0" stop-color="#f86f4b"/><stop offset="1" stop-color="#f32776"/></linearGradient><linearGradient id="linear-gradient-5" x1="41.65" y1="263.97" x2="35.45" y2="284.97" gradientTransform="matrix(0.92, -0.39, -0.46, -1.09, 231.07, 663.62)" xlink:href="#linear-gradient-4"/><linearGradient id="linear-gradient-6" x1="-4.2" y1="221.95" x2="-2.91" y2="210.37" gradientTransform="matrix(0.92, -0.39, 0.46, 1.09, -0.5, 109.92)" gradientUnits="userSpaceOnUse"><stop offset="0" stop-color="#00bef5"/><stop offset="1" stop-color="#007dc6"/></linearGradient><linearGradient id="linear-gradient-7" x1="-1.65" y1="272.42" x2="-5.09" y2="284.08" gradientTransform="matrix(0.92, -0.39, -0.46, -1.09, 231.07, 663.62)" xlink:href="#linear-gradient-6"/></defs><title>7</title><g class="cls-1"><g id="OBJECTS"><path class="cls-2" d="M181,274.4a59.53,59.53,0,0,0-67.86,16.46,57.87,57.87,0,0,0-4.59,6.18l2.56,1,13.69,5.61.37.15a14.18,14.18,0,0,0,13.64-1.56,33.58,33.58,0,1,1,29,59.47c-1,.28-1.92.51-2.9.71a14.55,14.55,0,0,0-10.79,8.68l-.23.57-5.61,13.71L147.26,388a57.43,57.43,0,0,0,12.9,1A59.55,59.55,0,0,0,181,274.4Z" transform="translate(-77.12 -269.94)"/><path class="cls-3" d="M181,274.4a59.53,59.53,0,0,0-67.86,16.46,57.87,57.87,0,0,0-4.59,6.18l2.56,1a56.82,56.82,0,1,1,37.2,87.34L147.26,388a57.43,57.43,0,0,0,12.9,1A59.55,59.55,0,0,0,181,274.4Z" transform="translate(-77.12 -269.94)"/><path class="cls-4" d="M177.15,291.41a42.43,42.43,0,0,0-51,10.57c-.47.55-.93,1.12-1.37,1.71l.37.15a14.18,14.18,0,0,0,13.64-1.56,33.58,33.58,0,1,1,29,59.47c-1,.28-1.92.51-2.9.71a14.55,14.55,0,0,0-10.79,8.68l-.23.57a44.35,44.35,0,0,0,5.75.21,42.43,42.43,0,0,0,17.47-80.51Z" transform="translate(-77.12 -269.94)"/><path class="cls-5" d="M166.94,326.67l-37.42,15.69L98,327.38l15.89-6.67a52.27,52.27,0,0,1,42.63,1Z" transform="translate(-77.12 -269.94)"/><path class="cls-6" d="M166.94,326.67l-37.42,15.69-11.43,33L134,368.72a52.28,52.28,0,0,0,29.17-31.1Z" transform="translate(-77.12 -269.94)"/><path class="cls-7" d="M114.4,348.7l-20.22,8.49-17.06-8.1,10.31-4.33a24.11,24.11,0,0,1,19.63.45Z" transform="translate(-77.12 -269.94)"/><path class="cls-8" d="M114.4,348.7l-20.22,8.49L88,375l10.31-4.32a24.06,24.06,0,0,0,13.43-14.32Z" transform="translate(-77.12 -269.94)"/></g></g></svg>